<svg xmlns="http://www.w3.org/2000/svg" viewBox="0 0 117.93 114.68"><defs><style>.cls-1{fill:none;stroke:#231f20;stroke-linecap:round;stroke-miterlimit:10;}</style></defs><title>Asset 1</title><g id="Layer_2" data-name="Layer 2"><g id="Layer_2-2" data-name="Layer 2"><path class="cls-1" d="M48.39,62.56s-9.55-8.75-10.67-13.34-3.33-9.66,1.5-10.33S71.89,50.72,71.89,50.72"/><path class="cls-1" d="M46.72,86.06c-8.81,10-10.49,8.82-12.67,12.66-2.66,5.56-9.33,16.75,0,15.34S77.27,99.06,83.72,80"/><polyline class="cls-1" points="82.32 87.9 82.33 87.9 82.34 87.89"/><path class="cls-1" d="M20.52,48.44A27.6,27.6,0,0,0,45.71,64.75a27.22,27.22,0,0,0,11.45-2.49l.05,0h0"/><path class="cls-1" d="M98.27,48.44c0-.16,0-.33,0-.49C98.28,21.74,76.39.5,49.39.5S.5,21.74.5,48C.5,69.09,14.75,87,34.44,93.13"/><line class="cls-1" x1="98.27" y1="48.44" x2="98.27" y2="48.43"/><path class="cls-1" d="M82.32,87.9h0c8.4-4.09,23.5-15.29,30-19.39,9.56-4.94,5.22-20.44-9.2-16.59-8.91,1.65-9.33-8.52-19.79-4.66-8.7,3.81-16.79,11.15-26.1,15h0l-.05,0,0,0"/></g></g></svg>